<svg width="375" height="812" viewBox="0 0 375 812" fill="none" xmlns="http://www.w3.org/2000/svg">
<g clip-path="url(#clip0_381_1185)">
<rect x="-23" y="-39" width="592" height="872" fill="#607CA7"/>
<path fill-rule="evenodd" clip-rule="evenodd" d="M-55.9579 837.28C31.2311 837.28 101.912 741.557 101.912 623.477C101.912 560.351 -10.5714 612.686 -42.6949 573.549C-70.6607 539.478 -15.3799 409.673 -55.9579 409.673C-143.147 409.673 -213.828 505.396 -213.828 623.477C-213.828 741.557 -143.147 837.28 -55.9579 837.28Z" fill="#0F3771"/>
<path opacity="0.541829" fill-rule="evenodd" clip-rule="evenodd" d="M152.879 78.1386C135.252 213.525 202.002 342.629 301.969 366.501C355.411 379.264 333.845 194.02 373.473 152.051C407.971 115.515 506.689 227.597 514.892 164.588C532.519 29.2014 465.769 -99.9031 365.802 -123.775C265.834 -147.648 170.505 -57.2476 152.879 78.1386Z" fill="#416396"/>
<path opacity="0.6" fill-rule="evenodd" clip-rule="evenodd" d="M-74.6508 66.1797C-156.582 106.566 -198.826 229.255 -169.005 340.215C-153.063 399.533 -60.5805 298.252 -20.5105 320.149C14.3732 339.212 -4.79241 486.795 33.3385 467.999C115.269 427.613 157.513 304.924 127.693 193.964C97.8725 83.0049 7.28012 25.7938 -74.6508 66.1797Z" fill="#0C2B58"/>
<path fill-rule="evenodd" clip-rule="evenodd" d="M555.728 670.958C575.182 521.539 501.514 379.053 391.185 352.707C332.204 338.622 356.006 543.065 312.27 589.384C274.196 629.708 165.247 506.009 156.193 575.549C136.739 724.967 210.408 867.453 320.736 893.799C431.065 920.146 536.275 820.376 555.728 670.958Z" fill="#0F3771"/>
</g>
<defs>
<clipPath id="clip0_381_1185">
<rect width="375" height="812" fill="white"/>
</clipPath>
</defs>
</svg>
