<svg width="1440" height="1024" viewBox="0 0 1440 1024" fill="none" xmlns="http://www.w3.org/2000/svg">
<g clip-path="url(#clip0_690_3196)">
<rect width="1440" height="1074.2" fill="#607CA7"/>
<path fill-rule="evenodd" clip-rule="evenodd" d="M272.5 1385.41C519.647 1385.41 720 1184.27 720 936.157C720 803.514 401.153 913.484 310.095 831.247C230.823 759.654 387.523 486.902 272.5 486.902C25.3526 486.902 -175 688.04 -175 936.157C-175 1184.27 25.3526 1385.41 272.5 1385.41Z" fill="#0F3771"/>
<path opacity="0.541829" fill-rule="evenodd" clip-rule="evenodd" d="M864.471 -209.734C814.505 74.7457 1003.72 346.026 1287.09 396.188C1438.57 423.004 1377.44 33.7617 1489.77 -54.4251C1587.56 -131.198 1867.39 104.314 1890.64 -28.0835C1940.61 -312.564 1751.4 -583.844 1468.03 -634.006C1184.66 -684.167 914.437 -494.215 864.471 -209.734Z" fill="#416396"/>
<path opacity="0.6" fill-rule="evenodd" clip-rule="evenodd" d="M219.512 -234.863C-12.7303 -150.002 -132.476 107.799 -47.9461 340.952C-2.75697 465.595 259.396 252.778 372.979 298.79C471.861 338.846 417.534 648.954 525.62 609.46C757.863 524.599 877.608 266.797 793.079 33.6439C708.549 -199.509 451.755 -319.724 219.512 -234.863Z" fill="#0C2B58"/>
<path fill-rule="evenodd" clip-rule="evenodd" d="M2006.38 1036.01C2061.52 722.041 1852.7 422.643 1539.96 367.282C1372.77 337.687 1440.24 767.273 1316.27 864.6C1208.34 949.33 899.512 689.408 873.848 835.528C818.703 1149.49 1027.53 1448.89 1340.26 1504.25C1653 1559.61 1951.23 1349.97 2006.38 1036.01Z" fill="#0F3771"/>
</g>
<defs>
<clipPath id="clip0_690_3196">
<rect width="1440" height="1024" fill="white"/>
</clipPath>
</defs>
</svg>
