<svg width="25" height="25" viewBox="0 0 25 25" fill="none" xmlns="http://www.w3.org/2000/svg">
<path d="M20.8333 8.33325L14.5833 2.08325H6.24996C5.69742 2.08325 5.16752 2.30275 4.77682 2.69345C4.38612 3.08415 4.16663 3.61405 4.16663 4.16659V20.8333C4.16663 21.3858 4.38612 21.9157 4.77682 22.3064C5.16752 22.6971 5.69742 22.9166 6.24996 22.9166H18.75C19.3025 22.9166 19.8324 22.6971 20.2231 22.3064C20.6138 21.9157 20.8333 21.3858 20.8333 20.8333V8.33325ZM9.37496 19.7916H7.29163V10.4166H9.37496V19.7916ZM13.5416 19.7916H11.4583V13.5416H13.5416V19.7916ZM17.7083 19.7916H15.625V16.6666H17.7083V19.7916ZM14.5833 9.37492H13.5416V4.16659L18.75 9.37492H14.5833Z" fill="white"/>
</svg>
